<?xml version="1.0" encoding="UTF-8" standalone="no"?>
<svg
   xmlns:dc="http://purl.org/dc/elements/1.1/"
   xmlns:cc="http://creativecommons.org/ns#"
   xmlns:rdf="http://www.w3.org/1999/02/22-rdf-syntax-ns#"
   xmlns:svg="http://www.w3.org/2000/svg"
   xmlns="http://www.w3.org/2000/svg"
   version="1.1"
   id="svg3683"
   viewBox="0 0 1291.4285 210.10833"
   height="59.297241mm"
   width="364.46982mm">
  <defs
     id="defs3685" />
  <metadata
     id="metadata3688">
    <rdf:RDF>
      <cc:Work
         rdf:about="">
        <dc:format>image/svg+xml</dc:format>
        <dc:type
           rdf:resource="http://purl.org/dc/dcmitype/StillImage" />
        <dc:title></dc:title>
      </cc:Work>
    </rdf:RDF>
  </metadata>
  <g
     transform="translate(-77.142857,-527.45476)"
     id="layer1">
    <path
       id="path3774"
       d="m 77.142796,683.79078 c 0.02719,0.0138 5.688598,-16.12022 22.374972,-42.64072 5.620062,-8.93451 13.097352,-19.86039 22.403232,-30.30716 6.00957,-6.75074 13.26182,-13.82315 21.87275,-19.79836 6.25286,-4.34014 13.47815,-8.19942 21.5175,-10.64783 6.62379,-2.00835 13.79588,-3.00882 21.16963,-2.74254 6.88338,0.2556 13.81299,1.5647 20.65486,3.72493 6.86874,2.1669 13.54876,5.09953 20.1574,8.56064 6.73589,3.52471 13.27415,7.5066 19.86371,11.81847 14.92614,9.76444 24.07242,16.88705 39.70986,27.46573 12.51706,8.45105 26.12454,16.9996 40.75109,22.89511 6.74103,2.7221 13.79576,4.92766 21.04319,6.22069 7.08568,1.26698 14.41839,1.67693 21.71173,1.00992 7.68668,-0.69378 15.37294,-2.59026 22.78848,-5.50913 8.49609,-3.3392 16.60254,-8.01207 24.32964,-13.56249 0.65987,-0.44708 1.38743,-1.22671 2.33291,-2.1551 0,0 4e-5,-4e-5 4e-5,-4e-5 1.41598,-1.43199 2.80318,-2.9524 4.21509,-4.52442 0,0 4e-5,-4e-5 4e-5,-4e-5 4.10845,-4.57773 8.09634,-9.29644 12.16554,-14.1388 11.0861,-13.19489 21.0473,-25.41523 32.50805,-39.22071 10.05297,-12.11198 20.55454,-24.7926 31.57879,-36.9227 3.47433,-3.83316 7.12074,-7.81433 11.24916,-11.50504 1.08938,-1.00928 2.46416,-2.17297 4.26556,-3.24256 0.44792,-0.33167 1.33426,-0.70922 2.67547,-1.02167 0.49902,-0.13157 1.24823,-0.12568 2.23727,0.0394 0.92229,0.18588 1.80332,0.66438 2.62388,1.4332 5.50713,5.50579 10.18937,11.54848 14.65738,17.61452 5.67694,7.68362 11.01096,15.52567 16.36665,23.46658 11.94357,17.70002 24.17533,36.33012 37.3124,53.65386 6.39855,8.43704 13.09562,16.72151 20.31332,24.49776 6.45368,6.94217 13.29031,13.52971 20.81239,19.08013 6.41585,4.70434 13.25974,8.74684 20.5515,10.89829 6.44377,1.91505 13.37174,2.34702 19.71878,0.71776 3.29238,-0.81403 6.59216,-2.06699 9.95487,-3.48511 0,-10e-6 7e-5,-3e-5 7e-5,-3e-5 4.16837,-1.76775 8.28283,-3.80035 12.40449,-5.96131 7.04568,-3.6956 13.97595,-7.70652 20.90342,-11.88427 3.15247,-1.90116 6.29498,-3.83119 9.42952,-5.77002 11.88322,-7.35357 23.76874,-14.99456 35.46497,-22.45058 12.7728,-8.14282 25.39526,-16.1356 38.20451,-23.89913 12.77982,-7.74667 25.5774,-15.17519 38.66407,-22.04288 12.04443,-6.32523 24.262,-12.15556 36.94967,-16.90075 10.65627,-4.00884 21.74308,-7.27797 33.31576,-8.3979 4.85485,-0.46811 9.83473,-0.4874 14.81944,0.19929 4.52187,0.6199 9.02518,1.9072 13.24274,4.00632 16.14449,8.1479 29.69243,20.16514 40.63667,33.50671 11.50595,14.0126 20.69263,29.50335 28.93994,44.55962 9.067,16.51919 16.2453,31.05508 25.2215,46.47534 8.5924,14.71998 17.6637,28.30973 28.9114,39.60604 0.9052,0.89161 1.8766,1.62306 2.8776,2.03272 0.9248,0.41079 2.0045,0.61024 3.1009,0.62436 1.2387,0.0265 2.5882,-0.24557 3.9822,-0.66017 1.653,-0.50175 3.3075,-1.27281 4.9695,-2.17144 4.2819,-2.31813 8.2667,-5.46406 12.1665,-8.78022 5.0102,-4.28273 9.7646,-8.93939 14.3775,-13.62098 11.2679,-11.44196 23.522,-25.04281 33.9621,-36.10992 13.3725,-14.18108 26.1395,-27.04863 39.7528,-38.84218 14.5066,-12.58252 28.9965,-23.07983 44.5637,-30.83876 7.8563,-3.91252 15.8052,-6.9701 23.8355,-9.01413 8.3514,-2.12524 16.6595,-3.0714 24.681,-2.84057 9.0112,0.26545 17.5395,2.03435 25.218,4.76049 9.7172,3.4559 18.2367,8.43059 25.373,13.6319 0,0 0,2e-5 0,2e-5 10.4813,7.63834 18.927,16.34499 25.2537,23.69761 18.3567,21.32765 24.1043,35.54803 24.3192,35.4123 -1.1399,0.71994 -7.8217,-12.94243 -26.6715,-33.31355 -6.479,-7 -15.0126,-15.28598 -25.3191,-22.38634 0,1e-5 0,-10e-6 0,-10e-6 -7.0169,-4.83327 -15.2848,-9.4108 -24.527,-12.46372 -7.2931,-2.41356 -15.3396,-3.91386 -23.7541,-4.00034 -7.4975,-0.0826 -15.2716,0.95255 -23.1079,3.07987 -7.5459,2.04788 -15.0429,5.07982 -22.5153,8.93402 -14.8456,7.65072 -28.6957,18.02051 -42.8027,30.52653 -13.2139,11.72887 -25.6407,24.55364 -38.7994,38.79142 -10.2749,11.12209 -22.355,24.79538 -33.7351,36.56369 -4.6389,4.79973 -9.5171,9.65342 -14.7627,14.22196 -4.0322,3.52961 -8.4498,7.03196 -13.4946,9.86207 -1.9807,1.11211 -4.1354,2.11593 -6.4767,2.87025 -1.9877,0.64884 -4.1735,1.06395 -6.4985,1.08628 -2.1402,0.0103 -4.3133,-0.39759 -6.3826,-1.25613 -2.1647,-0.93242 -4.0383,-2.25449 -5.5766,-3.80639 -12.066,-12.01738 -21.703,-26.14101 -30.5287,-41.13731 -9.247,-15.66988 -16.5759,-30.27834 -25.60356,-46.52193 -8.25088,-14.81582 -17.20056,-29.80096 -28.18119,-42.99592 -10.4005,-12.4844 -22.98637,-23.63457 -37.69134,-30.91141 -3.11448,-1.5669 -6.62817,-2.53085 -10.27802,-3.04323 -4.05506,-0.56587 -8.28524,-0.51505 -12.57698,-0.10778 -10.31589,0.97495 -20.55539,4.08347 -30.80825,7.91531 -12.14093,4.56523 -23.96702,10.25448 -35.78961,16.48197 -12.82541,6.76063 -25.43222,14.11 -38.09886,21.80908 -12.6898,7.71416 -25.23787,15.67921 -37.99049,23.82178 -11.67231,7.45328 -23.58753,15.12041 -35.57053,22.53899 -3.15259,1.95264 -6.32755,3.90347 -9.52738,5.83274 -7.03134,4.23939 -14.13567,8.3461 -21.42407,12.17091 -4.26766,2.24051 -8.62985,4.38808 -13.14617,6.3057 0,0 -7e-5,2e-5 -7e-5,2e-5 -3.61048,1.54098 -7.40503,2.95702 -11.43604,3.97384 -8.36028,2.04757 -17.05155,1.56302 -25.01431,-0.86259 -8.78253,-2.6917 -16.6342,-7.2536 -23.59063,-12.45639 -8.18683,-6.08784 -15.4675,-13.09515 -22.15402,-20.34413 -7.50263,-8.1214 -14.39106,-16.66893 -20.89261,-25.2913 -13.36367,-17.72147 -25.63861,-36.51913 -37.47902,-54.19956 -5.31948,-7.93922 -10.54582,-15.6856 -16.04932,-23.18826 -4.38811,-5.96313 -8.73214,-11.65772 -13.65909,-16.58601 0.65796,0.60621 1.32623,0.97606 2.024,1.11238 0.71945,0.10553 1.18719,0.12676 1.41423,0.0423 0.52449,-0.17083 0.65923,-0.16194 0.38742,-0.0836 -0.74076,0.37907 -1.59072,1.15867 -2.68419,2.08669 -3.67051,3.23091 -7.10276,6.96871 -10.59501,10.76521 -10.88372,11.8631 -21.36426,24.39723 -31.48687,36.45732 -11.44656,13.63978 -21.60571,25.95203 -32.77234,39.07375 -4.11007,4.83047 -8.19347,9.59662 -12.44704,14.27449 0,0 -4e-5,5e-5 -4e-5,5e-5 -1.45551,1.60182 -2.94967,3.214 -4.53404,4.79771 0,0 -3e-5,4e-5 -3e-5,4e-5 -0.89447,0.92098 -1.99853,2.00822 -3.45429,3.07229 -8.22881,5.84666 -16.99763,10.79367 -26.29,14.38524 -8.1341,3.1396 -16.60759,5.14789 -25.13672,5.8579 -8.09494,0.66513 -16.14615,0.15167 -23.87461,-1.30639 -7.88877,-1.49124 -15.44313,-3.91869 -22.55988,-6.88159 -15.40487,-6.4246 -29.36117,-15.35629 -41.9277,-24.07799 -15.92995,-11.03448 -24.50724,-17.93523 -39.30305,-27.88302 -6.42263,-4.31709 -12.71807,-8.27305 -19.15703,-11.75337 -6.31861,-3.41227 -12.60653,-6.29385 -19.01367,-8.41305 -6.37009,-2.10523 -12.74391,-3.4289 -19.02211,-3.75324 -6.7064,-0.35412 -13.2794,0.44371 -19.36887,2.17216 -7.41138,2.09305 -14.23262,5.58244 -20.23809,9.55709 -8.28433,5.48486 -15.43297,12.16505 -21.45559,18.59418 -9.30969,9.94474 -17.00209,20.53163 -22.85338,29.1703 -17.415149,25.71742 -24.098741,41.359 -25.165544,40.81904 z"
       style="fill:#000000;fill-rule:evenodd;stroke:none;stroke-width:1px;stroke-linecap:butt;stroke-linejoin:miter;stroke-opacity:1" />
  </g>
</svg>
