<svg width="296" height="75" xmlns="http://www.w3.org/2000/svg">
 <!-- Created with Method Draw - http://github.com/duopixel/Method-Draw/ -->
 <g>
  <title>background</title>
  <rect fill="#fff" id="canvas_background" height="77" width="298" y="-1" x="-1"/>
  <g display="none" overflow="visible" y="0" x="0" height="100%" width="100%" id="canvasGrid">
   <rect fill="url(#gridpattern)" stroke-width="0" y="0" x="0" height="100%" width="100%"/>
  </g>
 </g>
 <g>
  <title>Layer 1</title>
  <path d="m12.5,48.5c1,-1 0.852731,-2.173096 2,-3c1.813993,-1.307453 3.097887,-2.824429 5,-4c1.701302,-1.051464 9,-4 11,-5c2,-1 3.85273,-2.173096 5,-3c1.813992,-1.307453 3.026752,-1.770247 4,-2c2.17625,-0.513742 4.222729,-1.723991 8,-5c1.068375,-0.926596 3.026752,-1.770247 4,-2c2.17625,-0.513742 3.186008,-1.692549 5,-3c1.14727,-0.826904 1.693436,-1.458803 3,-2c0.923878,-0.382683 1.85273,-1.173096 3,-2c1.813995,-1.307451 3.693436,-1.458803 5,-2c0.923882,-0.382684 3.014984,-0.755633 5,-1c4.092216,-0.503775 6,-1 7,-1c1,0 2,0 3,0c1,0 2.076118,0.617316 3,1c1.306564,0.541196 2.85273,2.173096 4,3c1.813995,1.307451 3.931625,2.073404 5,3c3.777267,3.276009 5,5 6,6c1,1 1.292892,1.292892 2,2c0.707108,0.707108 1.076118,0.617317 2,1c1.306564,0.541197 3.186005,1.692549 5,3c2.29454,1.653809 5.85273,5.173096 7,6c1.813995,1.307453 3.85273,1.173096 5,2c1.813995,1.307453 3,1 4,1c1,0 3,1 4,1c1,0 1.693436,0.458805 3,1c3.695511,1.530735 8,0 10,0c2,0 5.693436,-1.458805 7,-2c2.771637,-1.148048 5.152237,-0.234634 7,-1c1.306564,-0.541195 2.852737,-1.173096 4,-2c1.813995,-1.307453 4,-2 10,-5c2,-1 7,-4 8,-5c1,-1 2.298691,-0.948538 4,-2c1.902115,-1.175571 2.881516,-2.190277 6,-4c1.93399,-1.122343 5.026749,-1.770247 6,-2c2.176254,-0.513742 2.878555,-1.49346 6,-2c1.974182,-0.320364 4.884964,-1.274315 7,-2c4.823029,-1.654818 6.884964,-1.274315 9,-2c4.823029,-1.654818 6.823746,-1.486257 9,-2c1.946503,-0.459506 4,0 6,0c1,0 1.292892,0.292893 2,1c0.707108,0.707107 1.61731,1.07612 2,2c0.541199,1.306562 2,2 4,4c1,1 1.692551,2.186007 3,4c1.653809,2.294538 3.692551,4.186007 5,6c3.307617,4.589077 5.186005,5.692547 7,7c2.294525,1.653809 2,3 4,5c1,1 1.076111,1.617317 2,2c1.306549,0.541195 2.292908,1.292892 3,2c0.707092,0.707108 1.076111,0.617317 2,1c1.306549,0.541195 2.018036,0.810894 3,1c5.287994,1.018375 6,2 8,3l1,0l1,0l1,0" id="svg_1" stroke-width="1.5" stroke="#000" fill="none"/>
 </g>
</svg>